<svg width="104" height="104" viewBox="0 0 104 104" fill="none" xmlns="http://www.w3.org/2000/svg">
<path d="M95.2037 79.4301C95.2037 80.9901 94.857 82.5934 94.1203 84.1534C93.3837 85.7134 92.4303 87.1867 91.1737 88.5734C89.0503 90.9134 86.7103 92.6034 84.067 93.6867C81.467 94.7701 78.6503 95.3334 75.617 95.3334C71.197 95.3334 66.4737 94.2934 61.4903 92.1701C56.507 90.0467 51.5237 87.1867 46.5837 83.5901C41.6003 79.9501 36.877 75.9201 32.3703 71.4567C27.907 66.9501 23.877 62.2267 20.2803 57.2867C16.727 52.3467 13.867 47.4067 11.787 42.5101C9.70699 37.5701 8.66699 32.8467 8.66699 28.3401C8.66699 25.3934 9.18699 22.5767 10.227 19.9767C11.267 17.3334 12.9137 14.9067 15.2103 12.7401C17.9837 10.0101 21.017 8.66675 24.2237 8.66675C25.437 8.66675 26.6503 8.92675 27.7337 9.44675C28.8603 9.96675 29.857 10.7467 30.637 11.8734L40.6903 26.0434C41.4703 27.1267 42.0337 28.1234 42.4237 29.0767C42.8137 29.9867 43.0303 30.8967 43.0303 31.7201C43.0303 32.7601 42.727 33.8001 42.1203 34.7967C41.557 35.7934 40.7337 36.8334 39.6937 37.8734L36.4003 41.2967C35.9237 41.7734 35.707 42.3367 35.707 43.0301C35.707 43.3767 35.7503 43.6801 35.837 44.0267C35.967 44.3734 36.097 44.6334 36.1837 44.8934C36.9637 46.3234 38.307 48.1867 40.2137 50.4401C42.1637 52.6934 44.2437 54.9901 46.497 57.2867C48.837 59.5834 51.0903 61.7067 53.387 63.6567C55.6403 65.5634 57.5037 66.8634 58.977 67.6434C59.1937 67.7301 59.4537 67.8601 59.757 67.9901C60.1037 68.1201 60.4503 68.1634 60.8403 68.1634C61.577 68.1634 62.1403 67.9034 62.617 67.4267L65.9103 64.1767C66.9937 63.0934 68.0337 62.2701 69.0303 61.7501C70.027 61.1434 71.0237 60.8401 72.107 60.8401C72.9303 60.8401 73.797 61.0134 74.7503 61.4034C75.7037 61.7934 76.7003 62.3567 77.7837 63.0934L92.127 73.2767C93.2537 74.0567 94.0337 74.9667 94.5103 76.0501C94.9437 77.1334 95.2037 78.2167 95.2037 79.4301Z" stroke="#262626" stroke-width="5" stroke-miterlimit="10"/>
</svg>
