<svg width="119" height="119" viewBox="0 0 119 119" fill="none" xmlns="http://www.w3.org/2000/svg">
<g clip-path="url(#clip0_28_120)">
<path d="M0 22.4C0 14.5593 0 10.6389 1.52591 7.64413C2.86814 5.00986 5.00986 2.86814 7.64413 1.52591C10.6389 0 14.5593 0 22.4 0H96.6C104.441 0 108.361 0 111.356 1.52591C113.99 2.86814 116.132 5.00986 117.474 7.64413C119 10.6389 119 14.5593 119 22.4V96.6C119 104.441 119 108.361 117.474 111.356C116.132 113.99 113.99 116.132 111.356 117.474C108.361 119 104.441 119 96.6 119H22.4C14.5593 119 10.6389 119 7.64413 117.474C5.00986 116.132 2.86814 113.99 1.52591 111.356C0 108.361 0 104.441 0 96.6V22.4Z" fill="#CBAE67"/>
<path d="M71.8955 27.2709L91.7288 47.1042L71.8955 27.2709Z" fill="#CBAE67"/>
<path d="M71.8955 27.2709L91.7288 47.1042" stroke="white" stroke-width="5" stroke-linecap="round" stroke-linejoin="round"/>
<path d="M59.5 39.6667L34.7083 14.875L14.875 34.7083L39.6667 59.5" fill="#CBAE67"/>
<path d="M59.5 39.6667L34.7083 14.875L14.875 34.7083L39.6667 59.5" stroke="white" stroke-width="5" stroke-linecap="round" stroke-linejoin="round"/>
<path d="M34.708 39.6666L27.2705 47.1041L34.708 39.6666Z" fill="#CBAE67"/>
<path d="M34.708 39.6666L27.2705 47.1041" stroke="white" stroke-width="5" stroke-linecap="round" stroke-linejoin="round"/>
<path d="M79.3333 59.5L104.125 84.2917L84.2917 104.125L59.5 79.3333" fill="#CBAE67"/>
<path d="M79.3333 59.5L104.125 84.2917L84.2917 104.125L59.5 79.3333" stroke="white" stroke-width="5" stroke-linecap="round" stroke-linejoin="round"/>
<path d="M79.333 84.2916L71.8955 91.7291L79.333 84.2916Z" fill="#CBAE67"/>
<path d="M79.333 84.2916L71.8955 91.7291" stroke="white" stroke-width="5" stroke-linecap="round" stroke-linejoin="round"/>
<path d="M14.875 104.125H34.7083L99.1667 39.6667C101.797 37.0366 103.274 33.4695 103.274 29.75C103.274 26.0305 101.797 22.4634 99.1667 19.8333C96.5366 17.2033 92.9695 15.7257 89.25 15.7257C85.5305 15.7257 81.9634 17.2033 79.3333 19.8333L14.875 84.2917V104.125Z" fill="#CBAE67" stroke="white" stroke-width="5" stroke-linecap="round" stroke-linejoin="round"/>
</g>
<defs>
<clipPath id="clip0_28_120">
<rect width="119" height="119" fill="white"/>
</clipPath>
</defs>
</svg>
